<svg xmlns="http://www.w3.org/2000/svg" xmlns:xlink="http://www.w3.org/1999/xlink" version="1.1" width="256" height="256" viewBox="0 0 256 256" xml:space="preserve">
<desc>Created with Fabric.js 1.7.22</desc>
<defs>
</defs>
<g transform="translate(128 128) scale(0.72 0.72)" style="">
	<g style="stroke: none; stroke-width: 0; stroke-dasharray: none; stroke-linecap: butt; stroke-linejoin: miter; stroke-miterlimit: 10; fill: none; fill-rule: nonzero; opacity: 1;" transform="translate(-175.05 -175.05000000000004) scale(3.89 3.89)" >
	<path d="M 89 33.59 c -0.553 0 -1 -0.448 -1 -1 V 2 H 57.214 c -0.553 0 -1 -0.448 -1 -1 s 0.447 -1 1 -1 H 89 c 0.553 0 1 0.448 1 1 v 31.59 C 90 33.143 89.553 33.59 89 33.59 z" style="stroke: none; stroke-width: 1; stroke-dasharray: none; stroke-linecap: butt; stroke-linejoin: miter; stroke-miterlimit: 10; fill: rgb(0,0,0); fill-rule: nonzero; opacity: 1;" transform=" matrix(1 0 0 1 0 0) " stroke-linecap="round" />
	<path d="M 42.705 90 H 1 c -0.552 0 -1 -0.447 -1 -1 V 1 c 0 -0.552 0.448 -1 1 -1 h 21.787 c 0.552 0 1 0.448 1 1 s -0.448 1 -1 1 H 2 v 86 h 40.705 c 0.552 0 1 0.447 1 1 S 43.257 90 42.705 90 z" style="stroke: none; stroke-width: 1; stroke-dasharray: none; stroke-linecap: butt; stroke-linejoin: miter; stroke-miterlimit: 10; fill: rgb(0,0,0); fill-rule: nonzero; opacity: 1;" transform=" matrix(1 0 0 1 0 0) " stroke-linecap="round" />
	<path d="M 57.214 26.427 c -0.211 0 -0.42 -0.066 -0.596 -0.197 L 45 17.604 L 33.383 26.23 c -0.303 0.227 -0.708 0.261 -1.045 0.091 c -0.338 -0.17 -0.551 -0.516 -0.551 -0.894 V 1 c 0 -0.552 0.448 -1 1 -1 H 45 c 0.552 0 1 0.448 1 1 s -0.448 1 -1 1 H 33.787 v 21.439 l 10.617 -7.883 c 0.354 -0.263 0.838 -0.263 1.192 0 l 10.618 7.883 V 1 c 0 -0.552 0.447 -1 1 -1 s 1 0.448 1 1 v 24.427 c 0 0.378 -0.213 0.724 -0.551 0.894 C 57.521 26.392 57.367 26.427 57.214 26.427 z" style="stroke: none; stroke-width: 1; stroke-dasharray: none; stroke-linecap: butt; stroke-linejoin: miter; stroke-miterlimit: 10; fill: rgb(0,0,0); fill-rule: nonzero; opacity: 1;" transform=" matrix(1 0 0 1 0 0) " stroke-linecap="round" />
	<path d="M 30.58 68.555 H 13.982 c -0.552 0 -1 -0.447 -1 -1 s 0.448 -1 1 -1 H 30.58 c 0.552 0 1 0.447 1 1 S 31.132 68.555 30.58 68.555 z" style="stroke: none; stroke-width: 1; stroke-dasharray: none; stroke-linecap: butt; stroke-linejoin: miter; stroke-miterlimit: 10; fill: rgb(0,0,0); fill-rule: nonzero; opacity: 1;" transform=" matrix(1 0 0 1 0 0) " stroke-linecap="round" />
	<path d="M 30.58 77.623 H 13.982 c -0.552 0 -1 -0.447 -1 -1 s 0.448 -1 1 -1 H 30.58 c 0.552 0 1 0.447 1 1 S 31.132 77.623 30.58 77.623 z" style="stroke: none; stroke-width: 1; stroke-dasharray: none; stroke-linecap: butt; stroke-linejoin: miter; stroke-miterlimit: 10; fill: rgb(0,0,0); fill-rule: nonzero; opacity: 1;" transform=" matrix(1 0 0 1 0 0) " stroke-linecap="round" />
	<path d="M 89 90 H 53.031 c -0.553 0 -1 -0.447 -1 -1 V 41.644 c 0 -0.552 0.447 -1 1 -1 H 89 c 0.553 0 1 0.448 1 1 V 89 C 90 89.553 89.553 90 89 90 z M 54.031 88 H 88 V 42.644 H 54.031 V 88 z" style="stroke: none; stroke-width: 1; stroke-dasharray: none; stroke-linecap: butt; stroke-linejoin: miter; stroke-miterlimit: 10; fill: rgb(0,0,0); fill-rule: nonzero; opacity: 1;" transform=" matrix(1 0 0 1 0 0) " stroke-linecap="round" />
	<path d="M 82.457 59.615 H 59.574 c -0.553 0 -1 -0.447 -1 -1 V 48.542 c 0 -0.553 0.447 -1 1 -1 h 22.883 c 0.553 0 1 0.447 1 1 v 10.073 C 83.457 59.168 83.01 59.615 82.457 59.615 z M 60.574 57.615 h 20.883 v -8.073 H 60.574 V 57.615 z" style="stroke: none; stroke-width: 1; stroke-dasharray: none; stroke-linecap: butt; stroke-linejoin: miter; stroke-miterlimit: 10; fill: rgb(0,0,0); fill-rule: nonzero; opacity: 1;" transform=" matrix(1 0 0 1 0 0) " stroke-linecap="round" />
	<path d="M 62.561 67.431 h -2.986 c -0.553 0 -1 -0.447 -1 -1 s 0.447 -1 1 -1 h 2.986 c 0.553 0 1 0.447 1 1 S 63.113 67.431 62.561 67.431 z" style="stroke: none; stroke-width: 1; stroke-dasharray: none; stroke-linecap: butt; stroke-linejoin: miter; stroke-miterlimit: 10; fill: rgb(0,0,0); fill-rule: nonzero; opacity: 1;" transform=" matrix(1 0 0 1 0 0) " stroke-linecap="round" />
	<path d="M 82.457 67.431 h -2.986 c -0.553 0 -1 -0.447 -1 -1 s 0.447 -1 1 -1 h 2.986 c 0.553 0 1 0.447 1 1 S 83.01 67.431 82.457 67.431 z" style="stroke: none; stroke-width: 1; stroke-dasharray: none; stroke-linecap: butt; stroke-linejoin: miter; stroke-miterlimit: 10; fill: rgb(0,0,0); fill-rule: nonzero; opacity: 1;" transform=" matrix(1 0 0 1 0 0) " stroke-linecap="round" />
	<path d="M 72.509 67.431 h -2.986 c -0.553 0 -1 -0.447 -1 -1 s 0.447 -1 1 -1 h 2.986 c 0.553 0 1 0.447 1 1 S 73.062 67.431 72.509 67.431 z" style="stroke: none; stroke-width: 1; stroke-dasharray: none; stroke-linecap: butt; stroke-linejoin: miter; stroke-miterlimit: 10; fill: rgb(0,0,0); fill-rule: nonzero; opacity: 1;" transform=" matrix(1 0 0 1 0 0) " stroke-linecap="round" />
	<path d="M 62.561 74.729 h -2.986 c -0.553 0 -1 -0.447 -1 -1 s 0.447 -1 1 -1 h 2.986 c 0.553 0 1 0.447 1 1 S 63.113 74.729 62.561 74.729 z" style="stroke: none; stroke-width: 1; stroke-dasharray: none; stroke-linecap: butt; stroke-linejoin: miter; stroke-miterlimit: 10; fill: rgb(0,0,0); fill-rule: nonzero; opacity: 1;" transform=" matrix(1 0 0 1 0 0) " stroke-linecap="round" />
	<path d="M 82.457 74.729 h -2.986 c -0.553 0 -1 -0.447 -1 -1 s 0.447 -1 1 -1 h 2.986 c 0.553 0 1 0.447 1 1 S 83.01 74.729 82.457 74.729 z" style="stroke: none; stroke-width: 1; stroke-dasharray: none; stroke-linecap: butt; stroke-linejoin: miter; stroke-miterlimit: 10; fill: rgb(0,0,0); fill-rule: nonzero; opacity: 1;" transform=" matrix(1 0 0 1 0 0) " stroke-linecap="round" />
	<path d="M 72.509 74.729 h -2.986 c -0.553 0 -1 -0.447 -1 -1 s 0.447 -1 1 -1 h 2.986 c 0.553 0 1 0.447 1 1 S 73.062 74.729 72.509 74.729 z" style="stroke: none; stroke-width: 1; stroke-dasharray: none; stroke-linecap: butt; stroke-linejoin: miter; stroke-miterlimit: 10; fill: rgb(0,0,0); fill-rule: nonzero; opacity: 1;" transform=" matrix(1 0 0 1 0 0) " stroke-linecap="round" />
	<path d="M 62.561 82.025 h -2.986 c -0.553 0 -1 -0.447 -1 -1 s 0.447 -1 1 -1 h 2.986 c 0.553 0 1 0.447 1 1 S 63.113 82.025 62.561 82.025 z" style="stroke: none; stroke-width: 1; stroke-dasharray: none; stroke-linecap: butt; stroke-linejoin: miter; stroke-miterlimit: 10; fill: rgb(0,0,0); fill-rule: nonzero; opacity: 1;" transform=" matrix(1 0 0 1 0 0) " stroke-linecap="round" />
	<path d="M 82.457 82.025 h -2.986 c -0.553 0 -1 -0.447 -1 -1 s 0.447 -1 1 -1 h 2.986 c 0.553 0 1 0.447 1 1 S 83.01 82.025 82.457 82.025 z" style="stroke: none; stroke-width: 1; stroke-dasharray: none; stroke-linecap: butt; stroke-linejoin: miter; stroke-miterlimit: 10; fill: rgb(0,0,0); fill-rule: nonzero; opacity: 1;" transform=" matrix(1 0 0 1 0 0) " stroke-linecap="round" />
	<path d="M 72.509 82.025 h -2.986 c -0.553 0 -1 -0.447 -1 -1 s 0.447 -1 1 -1 h 2.986 c 0.553 0 1 0.447 1 1 S 73.062 82.025 72.509 82.025 z" style="stroke: none; stroke-width: 1; stroke-dasharray: none; stroke-linecap: butt; stroke-linejoin: miter; stroke-miterlimit: 10; fill: rgb(0,0,0); fill-rule: nonzero; opacity: 1;" transform=" matrix(1 0 0 1 0 0) " stroke-linecap="round" />
</g>
</g>
</svg>