<svg xmlns="http://www.w3.org/2000/svg" xmlns:xlink="http://www.w3.org/1999/xlink" version="1.1" width="256" height="256" viewBox="0 0 256 256" xml:space="preserve">
<desc>Created with Fabric.js 1.7.22</desc>
<defs>
</defs>
<g transform="translate(128 128) scale(0.72 0.72)" style="">
	<g style="stroke: none; stroke-width: 0; stroke-dasharray: none; stroke-linecap: butt; stroke-linejoin: miter; stroke-miterlimit: 10; fill: none; fill-rule: nonzero; opacity: 1;" transform="translate(-175.05 -175.05000000000004) scale(3.89 3.89)" >
	<path d="M 89 72.591 c -0.553 0 -1 -0.447 -1 -1 V 2 H 57.214 c -0.553 0 -1 -0.448 -1 -1 s 0.447 -1 1 -1 H 89 c 0.553 0 1 0.448 1 1 v 70.591 C 90 72.144 89.553 72.591 89 72.591 z" style="stroke: none; stroke-width: 1; stroke-dasharray: none; stroke-linecap: butt; stroke-linejoin: miter; stroke-miterlimit: 10; fill: rgb(0,0,0); fill-rule: nonzero; opacity: 1;" transform=" matrix(1 0 0 1 0 0) " stroke-linecap="round" />
	<path d="M 71.705 90 H 1 c -0.552 0 -1 -0.447 -1 -1 V 1 c 0 -0.552 0.448 -1 1 -1 h 21.787 c 0.552 0 1 0.448 1 1 s -0.448 1 -1 1 H 2 v 86 h 69.705 c 0.553 0 1 0.447 1 1 S 72.258 90 71.705 90 z" style="stroke: none; stroke-width: 1; stroke-dasharray: none; stroke-linecap: butt; stroke-linejoin: miter; stroke-miterlimit: 10; fill: rgb(0,0,0); fill-rule: nonzero; opacity: 1;" transform=" matrix(1 0 0 1 0 0) " stroke-linecap="round" />
	<path d="M 57.214 26.427 c -0.211 0 -0.42 -0.066 -0.596 -0.197 L 45 17.604 L 33.383 26.23 c -0.303 0.227 -0.708 0.261 -1.045 0.091 c -0.338 -0.17 -0.551 -0.516 -0.551 -0.894 V 1 c 0 -0.552 0.448 -1 1 -1 H 45 c 0.552 0 1 0.448 1 1 s -0.448 1 -1 1 H 33.787 v 21.439 l 10.617 -7.883 c 0.354 -0.263 0.838 -0.263 1.192 0 l 10.618 7.883 V 1 c 0 -0.552 0.447 -1 1 -1 s 1 0.448 1 1 v 24.427 c 0 0.378 -0.213 0.724 -0.551 0.894 C 57.521 26.392 57.367 26.427 57.214 26.427 z" style="stroke: none; stroke-width: 1; stroke-dasharray: none; stroke-linecap: butt; stroke-linejoin: miter; stroke-miterlimit: 10; fill: rgb(0,0,0); fill-rule: nonzero; opacity: 1;" transform=" matrix(1 0 0 1 0 0) " stroke-linecap="round" />
	<path d="M 30.58 68.555 H 13.982 c -0.552 0 -1 -0.447 -1 -1 s 0.448 -1 1 -1 H 30.58 c 0.552 0 1 0.447 1 1 S 31.132 68.555 30.58 68.555 z" style="stroke: none; stroke-width: 1; stroke-dasharray: none; stroke-linecap: butt; stroke-linejoin: miter; stroke-miterlimit: 10; fill: rgb(0,0,0); fill-rule: nonzero; opacity: 1;" transform=" matrix(1 0 0 1 0 0) " stroke-linecap="round" />
	<path d="M 30.58 77.623 H 13.982 c -0.552 0 -1 -0.447 -1 -1 s 0.448 -1 1 -1 H 30.58 c 0.552 0 1 0.447 1 1 S 31.132 77.623 30.58 77.623 z" style="stroke: none; stroke-width: 1; stroke-dasharray: none; stroke-linecap: butt; stroke-linejoin: miter; stroke-miterlimit: 10; fill: rgb(0,0,0); fill-rule: nonzero; opacity: 1;" transform=" matrix(1 0 0 1 0 0) " stroke-linecap="round" />
	<path d="M 58.177 68.729 c -0.528 0 -0.97 -0.414 -0.998 -0.948 c -0.028 -0.552 0.396 -1.022 0.947 -1.051 c 2.643 -0.136 5.167 -1.205 7.109 -3.009 c 2.214 -2.057 3.494 -4.852 3.604 -7.871 c 0.111 -3.02 -0.96 -5.901 -3.017 -8.115 c -2.057 -2.213 -4.853 -3.494 -7.871 -3.605 c -3.026 -0.095 -5.901 0.961 -8.115 3.017 c -4.569 4.245 -4.833 11.417 -0.588 15.986 c 0.376 0.404 0.353 1.037 -0.052 1.413 c -0.403 0.374 -1.035 0.354 -1.413 -0.052 c -4.996 -5.377 -4.686 -13.816 0.691 -18.813 c 2.604 -2.419 5.972 -3.684 9.55 -3.551 c 3.553 0.131 6.843 1.637 9.263 4.242 c 2.42 2.605 3.682 5.996 3.551 9.55 c -0.131 3.553 -1.638 6.843 -4.242 9.263 c -2.285 2.124 -5.257 3.381 -8.367 3.542 C 58.212 68.729 58.194 68.729 58.177 68.729 z" style="stroke: none; stroke-width: 1; stroke-dasharray: none; stroke-linecap: butt; stroke-linejoin: miter; stroke-miterlimit: 10; fill: rgb(0,0,0); fill-rule: nonzero; opacity: 1;" transform=" matrix(1 0 0 1 0 0) " stroke-linecap="round" />
	<path d="M 85.079 90 c -0.061 0 -0.122 -0.001 -0.185 -0.003 c -1.314 -0.049 -2.531 -0.605 -3.427 -1.569 l -14.457 -15.56 c -7.797 4.237 -17.712 2.714 -23.867 -3.771 c -7.223 -7.613 -7.168 -19.928 0.121 -27.451 c 3.788 -3.91 8.846 -6.056 14.262 -6.056 c 0.071 0 0.143 0 0.215 0.001 c 5.5 0.058 10.591 2.308 14.333 6.336 l 0 0 c 6.155 6.625 7.009 16.691 2.153 24.236 l 14.455 15.56 c 0.896 0.964 1.362 2.218 1.314 3.532 c -0.049 1.315 -0.605 2.532 -1.569 3.427 C 87.51 89.536 86.326 90 85.079 90 z M 67.204 70.606 c 0.271 0 0.538 0.109 0.732 0.319 l 14.996 16.141 c 0.532 0.572 1.255 0.903 2.035 0.932 c 0.775 0.016 1.525 -0.248 2.099 -0.78 c 0.572 -0.531 0.903 -1.254 0.932 -2.034 c 0.028 -0.781 -0.248 -1.526 -0.78 -2.099 L 72.223 66.944 c -0.321 -0.346 -0.357 -0.87 -0.085 -1.256 c 4.815 -6.843 4.173 -16.263 -1.528 -22.399 c -3.365 -3.623 -7.943 -5.646 -12.89 -5.698 c -4.922 -0.05 -9.566 1.883 -13.019 5.446 c -6.554 6.764 -6.601 17.836 -0.106 24.682 c 5.702 6.009 14.995 7.283 22.095 3.029 C 66.85 70.653 67.027 70.606 67.204 70.606 z" style="stroke: none; stroke-width: 1; stroke-dasharray: none; stroke-linecap: butt; stroke-linejoin: miter; stroke-miterlimit: 10; fill: rgb(0,0,0); fill-rule: nonzero; opacity: 1;" transform=" matrix(1 0 0 1 0 0) " stroke-linecap="round" />
</g>
</g>
</svg>